<mxfile host="app.diagrams.net" modified="2022-08-31T13:30:31.976Z" agent="5.0 (Macintosh; Intel Mac OS X 10_15_7) AppleWebKit/537.36 (KHTML, like Gecko) Chrome/104.0.0.0 Safari/537.36" etag="ibhZ5aFlLt2axIbmHYey" version="20.2.3" type="github" pages="3">
  <diagram id="Yt8yVQIm83dHZ3RI_-oW" name="ReqResp">
    <mxGraphModel dx="946" dy="632" grid="1" gridSize="10" guides="1" tooltips="1" connect="1" arrows="1" fold="1" page="1" pageScale="1" pageWidth="827" pageHeight="1169" math="0" shadow="0">
      <root>
        <mxCell id="0" />
        <mxCell id="1" parent="0" />
        <mxCell id="K78RDFR8BEmQVbYn8pyj-4" value="HTTP Response" style="edgeStyle=orthogonalEdgeStyle;rounded=0;orthogonalLoop=1;jettySize=auto;html=1;exitX=0;exitY=0.5;exitDx=0;exitDy=0;entryX=0.5;entryY=0;entryDx=0;entryDy=0;fontSize=18;" parent="1" source="K78RDFR8BEmQVbYn8pyj-1" target="K78RDFR8BEmQVbYn8pyj-2" edge="1">
          <mxGeometry relative="1" as="geometry" />
        </mxCell>
        <mxCell id="K78RDFR8BEmQVbYn8pyj-1" value="Server&lt;br style=&quot;font-size: 18px;&quot;&gt;&lt;br style=&quot;font-size: 18px;&quot;&gt;python -m http.server" style="ellipse;whiteSpace=wrap;html=1;aspect=fixed;fontSize=18;" parent="1" vertex="1">
          <mxGeometry x="610" y="30" width="130" height="130" as="geometry" />
        </mxCell>
        <mxCell id="K78RDFR8BEmQVbYn8pyj-3" value="HTTP &quot;GET / + headers&quot;" style="edgeStyle=orthogonalEdgeStyle;rounded=0;orthogonalLoop=1;jettySize=auto;html=1;exitX=1;exitY=0;exitDx=0;exitDy=0;fontSize=18;" parent="1" source="K78RDFR8BEmQVbYn8pyj-2" target="K78RDFR8BEmQVbYn8pyj-1" edge="1">
          <mxGeometry x="-0.2488" relative="1" as="geometry">
            <mxPoint as="offset" />
          </mxGeometry>
        </mxCell>
        <mxCell id="K78RDFR8BEmQVbYn8pyj-2" value="Client&lt;br style=&quot;font-size: 18px;&quot;&gt;&lt;br style=&quot;font-size: 18px;&quot;&gt;chrome" style="ellipse;whiteSpace=wrap;html=1;aspect=fixed;fontSize=18;" parent="1" vertex="1">
          <mxGeometry x="120" y="360" width="130" height="130" as="geometry" />
        </mxCell>
      </root>
    </mxGraphModel>
  </diagram>
  <diagram id="8pkDWuwpeYtpywgCGGTE" name="LadderDiagram">
    <mxGraphModel dx="946" dy="632" grid="1" gridSize="10" guides="1" tooltips="1" connect="1" arrows="1" fold="1" page="1" pageScale="1" pageWidth="1169" pageHeight="827" math="0" shadow="0">
      <root>
        <mxCell id="0" />
        <mxCell id="1" parent="0" />
      </root>
    </mxGraphModel>
  </diagram>
  <diagram id="-5YB6fdcl8hSL8G5vQ-r" name="Page-3">
    <mxGraphModel dx="946" dy="632" grid="1" gridSize="10" guides="1" tooltips="1" connect="1" arrows="1" fold="1" page="1" pageScale="1" pageWidth="1169" pageHeight="827" math="0" shadow="0">
      <root>
        <mxCell id="0" />
        <mxCell id="1" parent="0" />
        <mxCell id="9yHjCbg_KpuQl79O8cgr-4" value="HTTP 200 OK, Content... \n\n. {JSON}" style="edgeStyle=orthogonalEdgeStyle;rounded=0;orthogonalLoop=1;jettySize=auto;html=1;exitX=0.5;exitY=0;exitDx=0;exitDy=0;entryX=0.5;entryY=0;entryDx=0;entryDy=0;fontSize=18;fontColor=#FF2212;" parent="1" source="9yHjCbg_KpuQl79O8cgr-1" target="9yHjCbg_KpuQl79O8cgr-2" edge="1">
          <mxGeometry relative="1" as="geometry" />
        </mxCell>
        <mxCell id="9yHjCbg_KpuQl79O8cgr-1" value="Server&lt;br style=&quot;font-size: 18px;&quot;&gt;&lt;br style=&quot;font-size: 18px;&quot;&gt;&lt;font color=&quot;#ff2212&quot;&gt;AWS EC2&lt;/font&gt;&lt;br&gt;&lt;br&gt;python datasvr.py" style="ellipse;whiteSpace=wrap;html=1;aspect=fixed;fontSize=18;" parent="1" vertex="1">
          <mxGeometry x="130" y="160" width="260" height="260" as="geometry" />
        </mxCell>
        <mxCell id="9yHjCbg_KpuQl79O8cgr-3" value="HTTP GET /&lt;br&gt;..." style="edgeStyle=orthogonalEdgeStyle;rounded=0;orthogonalLoop=1;jettySize=auto;html=1;fontSize=18;fontColor=#FF2212;" parent="1" source="9yHjCbg_KpuQl79O8cgr-2" target="9yHjCbg_KpuQl79O8cgr-1" edge="1">
          <mxGeometry relative="1" as="geometry" />
        </mxCell>
        <mxCell id="9yHjCbg_KpuQl79O8cgr-6" value="print()" style="edgeStyle=orthogonalEdgeStyle;rounded=0;orthogonalLoop=1;jettySize=auto;html=1;exitX=0.5;exitY=1;exitDx=0;exitDy=0;entryX=0.5;entryY=0;entryDx=0;entryDy=0;entryPerimeter=0;fontSize=18;fontColor=#FF2212;" parent="1" source="9yHjCbg_KpuQl79O8cgr-2" target="9yHjCbg_KpuQl79O8cgr-5" edge="1">
          <mxGeometry relative="1" as="geometry" />
        </mxCell>
        <mxCell id="9yHjCbg_KpuQl79O8cgr-2" value="Client&lt;br&gt;&lt;br style=&quot;font-size: 18px;&quot;&gt;&lt;font color=&quot;#ff2212&quot;&gt;Laptop&lt;/font&gt;&lt;br&gt;&lt;br&gt;python datareq.py" style="ellipse;whiteSpace=wrap;html=1;aspect=fixed;fontSize=18;" parent="1" vertex="1">
          <mxGeometry x="600" y="240" width="260" height="260" as="geometry" />
        </mxCell>
        <mxCell id="9yHjCbg_KpuQl79O8cgr-5" value="[....]" style="sketch=0;aspect=fixed;pointerEvents=1;shadow=0;dashed=0;html=1;strokeColor=none;labelPosition=center;verticalLabelPosition=bottom;verticalAlign=top;align=center;fillColor=#00188D;shape=mxgraph.azure.laptop;fontSize=18;fontColor=#FF2212;" parent="1" vertex="1">
          <mxGeometry x="605" y="590" width="250" height="150" as="geometry" />
        </mxCell>
      </root>
    </mxGraphModel>
  </diagram>
</mxfile>
